<svg xmlns="http://www.w3.org/2000/svg" viewBox="0 0 32 32" width="32" height="32">
  <defs>
    <linearGradient id="grad" x1="0%" y1="0%" x2="100%" y2="100%">
      <stop offset="0%" style="stop-color:#8b5cf6;stop-opacity:1" />
      <stop offset="100%" style="stop-color:#a78bfa;stop-opacity:1" />
    </linearGradient>
  </defs>
  <rect width="32" height="32" rx="6" fill="#0f0f23"/>
  
  <!-- Chat bubble with code brackets -->
  <g fill="none" stroke="url(#grad)" stroke-width="1.5" stroke-linecap="round" stroke-linejoin="round">
    <!-- Left bracket -->
    <path d="M8 10c-1 0-2 1-2 2v8c0 1 1 2 2 2h1"/>
    <!-- Chat bubble -->
    <path d="M9 12h14c1 0 2 1 2 2v4c0 1-1 2-2 2h-8l-3 3v-3H9c-1 0-2-1-2-2v-4c0-1 1-2 2-2z"/>
    <!-- Right bracket -->
    <path d="M23 10c1 0 2 1 2 2v8c0 1-1 2-2 2h-1"/>
  </g>
  
  <!-- Eyes/dots inside bubble -->
  <circle cx="14" cy="16" r="1" fill="url(#grad)"/>
  <circle cx="18" cy="16" r="1" fill="url(#grad)"/>
</svg>